<svg width="39" height="16" viewBox="0 0 39 16" fill="none" xmlns="http://www.w3.org/2000/svg">
<path d="M3.41016 15.3281V13.2422H4.06641C4.44922 13.2422 4.71875 13.1758 4.875 13.043C5.03125 12.9102 5.12109 12.7422 5.14453 12.5391C5.17578 12.3359 5.19141 12.1289 5.19141 11.918V2.30859H3.31641C2.88672 2.30859 2.56641 2.33594 2.35547 2.39062C2.14453 2.4375 2.00391 2.52734 1.93359 2.66016C1.86328 2.79297 1.82812 2.98047 1.82812 3.22266C1.82812 3.33203 1.82812 3.51172 1.82812 3.76172C1.82812 4.01172 1.82812 4.26953 1.82812 4.53516C1.83594 4.80078 1.83984 5.01562 1.83984 5.17969H0V0C0 0 0.207031 0.00390625 0.621094 0.0117188C1.04297 0.0117188 1.55859 0.0117188 2.16797 0.0117188C2.77734 0.0117188 3.38281 0.015625 3.98438 0.0234375C4.59375 0.0234375 5.08594 0.0234375 5.46094 0.0234375H9.89062C10.3438 0.0234375 10.8203 0.0234375 11.3203 0.0234375C11.8203 0.015625 12.3164 0.0117188 12.8086 0.0117188C13.3008 0.00390625 13.7578 0 14.1797 0V5.17969H12.3281V3.59766C12.3281 3.23047 12.293 2.95703 12.2227 2.77734C12.1523 2.58984 11.9883 2.46484 11.7305 2.40234C11.4727 2.33984 11.0586 2.30859 10.4883 2.30859H9.02344V12.3398C9.02344 12.457 9.04297 12.5859 9.08203 12.7266C9.12891 12.8672 9.23047 12.9883 9.38672 13.0898C9.55078 13.1914 9.80469 13.2422 10.1484 13.2422H10.8047V15.3281C10.2266 15.3281 9.66797 15.3281 9.12891 15.3281C8.59766 15.3203 7.9375 15.3125 7.14844 15.3047C6.88281 15.3047 6.58984 15.3086 6.26953 15.3164C5.94922 15.3164 5.62109 15.3164 5.28516 15.3164C4.95703 15.3164 4.63281 15.3203 4.3125 15.3281C3.99219 15.3281 3.69141 15.3281 3.41016 15.3281ZM15.7266 15.3281V13.2422H16.1953C16.6016 13.2422 16.8867 13.1953 17.0508 13.1016C17.2227 13 17.3242 12.8516 17.3555 12.6562C17.3945 12.4609 17.4141 12.2188 17.4141 11.9297V3.43359C17.4141 3.12891 17.3945 2.87891 17.3555 2.68359C17.3242 2.48047 17.2227 2.33203 17.0508 2.23828C16.8789 2.13672 16.5938 2.08594 16.1953 2.08594H15.7266V0C16.4297 0.0078125 17.0195 0.015625 17.4961 0.0234375C17.9805 0.0234375 18.4492 0.0234375 18.9023 0.0234375C19.5273 0.0234375 20.0625 0.0234375 20.5078 0.0234375C20.9609 0.0234375 21.375 0.0234375 21.75 0.0234375C22.1328 0.015625 22.5312 0.0078125 22.9453 0V2.08594H22.4531C22.0859 2.08594 21.8164 2.13281 21.6445 2.22656C21.4727 2.3125 21.3633 2.44141 21.3164 2.61328C21.2695 2.77734 21.2461 2.97266 21.2461 3.19922V12.1758C21.2461 12.457 21.2656 12.6758 21.3047 12.832C21.3438 12.9805 21.4453 13.0859 21.6094 13.1484C21.7812 13.2109 22.0625 13.2422 22.4531 13.2422H22.9453V15.3281C22.3672 15.3281 21.8047 15.3242 21.2578 15.3164C20.7188 15.3086 20.0625 15.3047 19.2891 15.3047C18.5703 15.3047 17.9336 15.3086 17.3789 15.3164C16.832 15.3242 16.2812 15.3281 15.7266 15.3281ZM24.5859 15.3281V13.2422H25.1719C25.5625 13.2422 25.8438 13.2109 26.0156 13.1484C26.1875 13.0781 26.293 12.9492 26.332 12.7617C26.3789 12.5664 26.4023 12.2773 26.4023 11.8945V3.36328C26.4023 2.99609 26.3477 2.69531 26.2383 2.46094C26.1289 2.21875 25.793 2.09375 25.2305 2.08594C25.1914 2.08594 25.0859 2.08594 24.9141 2.08594C24.75 2.08594 24.6406 2.08594 24.5859 2.08594V0H32.6133C34.1445 0 35.375 0.191406 36.3047 0.574219C37.2344 0.957031 37.9102 1.49219 38.332 2.17969C38.7617 2.85938 38.9766 3.64844 38.9766 4.54688C38.9766 5.42969 38.7812 6.20703 38.3906 6.87891C38 7.55078 37.3398 8.07422 36.4102 8.44922C35.4805 8.82422 34.2031 9.01172 32.5781 9.01172H30.2461V12.1289C30.2461 12.6289 30.3242 12.9414 30.4805 13.0664C30.6367 13.1836 30.9609 13.2422 31.4531 13.2422H32.0391V15.3281C31.5 15.3281 30.9688 15.3242 30.4453 15.3164C29.9219 15.3086 29.2969 15.3047 28.5703 15.3047C27.7734 15.3047 27.0625 15.3086 26.4375 15.3164C25.8203 15.3242 25.2031 15.3281 24.5859 15.3281ZM30.2461 6.94922H32.1445C34.1055 6.94922 35.0859 6.14062 35.0859 4.52344C35.0859 3.71875 34.8438 3.11719 34.3594 2.71875C33.8828 2.32031 33.0742 2.12109 31.9336 2.12109H30.2461V6.94922Z" fill="#700A95"/>
</svg>
